<?xml version="1.0" encoding="UTF-8" standalone="no"?>
<svg
   fill="#000000"
   viewBox="0 0 50 50"
   width="50"
   height="50"
   version="1.1"
   id="svg1751"
   sodipodi:docname="icons8-linkedin.svg"
   xmlns:inkscape="http://www.inkscape.org/namespaces/inkscape"
   xmlns:sodipodi="http://sodipodi.sourceforge.net/DTD/sodipodi-0.dtd"
   xmlns="http://www.w3.org/2000/svg"
   xmlns:svg="http://www.w3.org/2000/svg">
  <defs
     id="defs1755" />
  <sodipodi:namedview
     id="namedview1753"
     pagecolor="#ffffff"
     bordercolor="#000000"
     borderopacity="0.25"
     inkscape:pageshadow="2"
     inkscape:pageopacity="0.0"
     inkscape:pagecheckerboard="0"
     inkscape:deskcolor="#d1d1d1"
     showgrid="false" />
  <path
     d="M 41,4 H 9 C 6.24,4 4,6.24 4,9 v 32 c 0,2.76 2.24,5 5,5 h 32 c 2.76,0 5,-2.24 5,-5 V 9 C 46,6.24 43.76,4 41,4 Z M 17,20 V 39 H 11 V 20 Z m -6,-5.53 c 0,-1.4 1.2,-2.47 3,-2.47 1.8,0 2.93,1.07 3,2.47 0,1.4 -1.12,2.53 -3,2.53 -1.8,0 -3,-1.13 -3,-2.53 z M 39,39 h -6 c 0,0 0,-9.26 0,-10 0,-2 -1,-4 -3.5,-4.04 H 29.42 C 27,24.96 26,27.02 26,29 c 0,0.91 0,10 0,10 H 20 V 20 h 6 v 2.56 c 0,0 1.93,-2.56 5.81,-2.56 3.97,0 7.19,2.73 7.19,8.26 z"
     id="path1749" />
  <path
     style="fill:#ffffff;stroke-width:0.0637755"
     d="m 11.001276,29.528061 v -9.470663 h 2.997448 2.997449 v 9.470663 9.470663 h -2.997449 -2.997448 z"
     id="path1757" />
  <path
     style="fill:#ffffff;stroke-width:0.0637755"
     d="m 13.518122,16.928958 c -1.469556,-0.18941 -2.460157,-1.176694 -2.460157,-2.451917 0,-1.323694 1.013217,-2.269335 2.59892,-2.425586 2.272587,-0.223935 3.901311,1.609425 3.060794,3.445358 -0.463506,1.012429 -1.803259,1.612113 -3.199557,1.432145 z"
     id="path1759" />
  <path
     style="fill:#ffffff;stroke-width:0.0637755"
     d="m 20.057398,29.528061 v -9.470663 h 2.965561 2.965561 v 1.267201 1.267202 l 0.431808,-0.422176 c 1.088876,-1.064588 2.646081,-1.821605 4.220698,-2.051845 0.826382,-0.120833 2.314096,-0.04741 3.077457,0.15189 1.921299,0.501606 3.403689,1.712402 4.307851,3.518595 0.303756,0.606796 0.603231,1.515416 0.746211,2.264031 0.182394,0.954981 0.222815,2.341431 0.224515,7.700893 l 0.0017,5.245535 H 36.003005 33.00725 l -0.01858,-5.532525 c -0.01708,-5.085068 -0.02776,-5.563295 -0.132014,-5.912977 -0.386348,-1.295821 -1.200918,-2.152367 -2.371924,-2.494156 -0.556744,-0.162501 -1.588991,-0.148154 -2.146042,0.02983 -0.872954,0.278914 -1.48503,0.848108 -1.92795,1.792877 -0.424746,0.906004 -0.422182,0.864762 -0.422182,6.78901 v 5.327943 h -2.965561 -2.965561 z"
     id="path1761" />
</svg>
