<?xml version="1.0" encoding="UTF-8" standalone="no"?>
<svg
   fill="#000000"
   viewBox="0 0 50 50"
   width="50"
   height="50"
   version="1.1"
   id="svg1807"
   sodipodi:docname="icons8-instagram.svg"
   xmlns:inkscape="http://www.inkscape.org/namespaces/inkscape"
   xmlns:sodipodi="http://sodipodi.sourceforge.net/DTD/sodipodi-0.dtd"
   xmlns="http://www.w3.org/2000/svg"
   xmlns:svg="http://www.w3.org/2000/svg">
  <defs
     id="defs1811" />
  <sodipodi:namedview
     id="namedview1809"
     pagecolor="#ffffff"
     bordercolor="#000000"
     borderopacity="0.25"
     inkscape:pageshadow="2"
     inkscape:pageopacity="0.0"
     inkscape:pagecheckerboard="0"
     inkscape:deskcolor="#d1d1d1"
     showgrid="false" />
  <path
     d="M 8,3 C 5.239,3 3,5.239 3,8 v 8 c 0,2.761 2.239,5 5,5 h 8 c 2.761,0 5,-2.239 5,-5 V 8 C 21,5.239 18.761,3 16,3 Z m 10,2 c 0.552,0 1,0.448 1,1 0,0.552 -0.448,1 -1,1 -0.552,0 -1,-0.448 -1,-1 0,-0.552 0.448,-1 1,-1 z m -6,2 c 2.761,0 5,2.239 5,5 0,2.761 -2.239,5 -5,5 C 9.239,17 7,14.761 7,12 7,9.239 9.239,7 12,7 Z m 0,2 a 3,3 0 0 0 -3,3 3,3 0 0 0 3,3 3,3 0 0 0 3,-3 3,3 0 0 0 -3,-3 z"
     id="path1805" />
  <path
     style="fill:#ffffff;stroke-width:0.0306122"
     d="M 11.418367,16.955186 C 9.21086,16.627936 7.5912369,15.131641 7.1115992,12.976363 7.0533534,12.714633 7.0441928,12.581944 7.0441928,12 c 0,-0.581944 0.00916,-0.714633 0.067406,-0.976363 C 7.5594802,9.0110595 9.0110595,7.5594802 11.023637,7.1115992 11.285367,7.0533534 11.418056,7.0441928 12,7.0441928 c 0.581944,0 0.714633,0.00916 0.976363,0.067406 2.014035,0.4482052 3.463833,1.8980033 3.912038,3.9120382 0.05825,0.26173 0.06741,0.394419 0.06741,0.976363 0,0.581944 -0.0092,0.714633 -0.06741,0.976363 -0.448098,2.013553 -1.914268,3.478953 -3.912038,3.909983 -0.236592,0.05105 -0.430208,0.06722 -0.884526,0.0739 -0.319898,0.0047 -0.622959,0.0024 -0.67347,-0.0051 z m 1.308164,-2.028668 c 0.561941,-0.146001 1.011298,-0.404219 1.416326,-0.813875 0.9777,-0.988871 1.149275,-2.479705 0.425269,-3.695205 C 14.367027,10.079822 13.947982,9.6572978 13.60741,9.4487448 13.324628,9.2755803 12.988756,9.1351459 12.665428,9.0548844 c -0.285777,-0.07094 -1.045079,-0.07094 -1.330856,0 -0.584642,0.1451291 -1.06225,0.4142425 -1.476926,0.8321904 -1.4144061,1.4255652 -1.0555939,3.8072622 0.718885,4.7717572 0.24439,0.132835 0.682561,0.281834 0.948979,0.322699 0.300048,0.04602 0.921751,0.01755 1.201021,-0.05501 z"
     id="path1813" />
  <path
     style="fill:#ffffff;stroke-width:0.0306122"
     d="M 17.768245,6.9547232 C 17.313376,6.8266047 17.023593,6.4546524 17.022586,5.997629 17.021397,5.4580617 17.457667,5.0230637 18,5.0230637 c 0.386135,0 0.703776,0.2011024 0.878623,0.556266 0.132256,0.2686506 0.138669,0.5474468 0.01858,0.8078528 -0.200418,0.4346008 -0.703334,0.6874223 -1.128958,0.5675407 z"
     id="path1815" />
</svg>
