<?xml version="1.0" encoding="UTF-8" standalone="no"?>
<svg
   fill="#000000"
   viewBox="0 0 50 50"
   width="50"
   height="50"
   version="1.1"
   id="svg4"
   xmlns="http://www.w3.org/2000/svg"
   xmlns:svg="http://www.w3.org/2000/svg">
  <defs
     id="defs8" />
  <path
     d="M 9,4 C 6.2504839,4 4,6.2504839 4,9 v 32 c 0,2.749516 2.2504839,5 5,5 h 16.832031 a 1.0001,1.0001 0 0 0 0.326172,0 h 5.673828 a 1.0001,1.0001 0 0 0 0.326172,0 H 41 c 2.749516,0 5,-2.250484 5,-5 V 9 C 46,6.2504839 43.749516,4 41,4 Z m 0,2 h 32 c 1.668484,0 3,1.3315161 3,3 v 32 c 0,1.668484 -1.331516,3 -3,3 H 33 V 30 h 3.820312 l 1.400391,-7 H 33 v -2 c 0,-0.557492 0.05305,-0.601071 0.240234,-0.722656 C 33.427419,20.155758 34.005822,20 35,20 h 3 V 14.369141 L 37.429688,14.097656 C 37.429688,14.097656 35.132647,13 32,13 29.75,13 27.901588,13.896453 26.71875,15.375 25.535912,16.853547 25,18.833333 25,21 v 2 h -3 v 7 h 3 V 44 H 9 C 7.3315161,44 6,42.668484 6,41 V 9 C 6,7.3315161 7.3315161,6 9,6 Z m 23,9 c 2.079062,0 3.38736,0.458455 4,0.701172 V 18 h -1 c -1.150822,0 -2.073044,0.0952 -2.849609,0.599609 C 31.373826,19.104024 31,20.061492 31,21 v 4 h 4.779297 l -0.599609,3 H 31 V 44 H 27 V 28 h -3 v -3 h 3 v -4 c 0,-1.833333 0.464088,-3.353547 1.28125,-4.375 C 29.098412,15.603547 30.25,15 32,15 Z"
     id="path2" />
  <path
     style="fill:#000000;stroke-width:0.0614251"
     d="M 8.0939903,43.821483 C 7.2957432,43.56856 6.548527,42.866319 6.2254067,42.06537 L 6.0810811,41.707617 6.0648618,25.12285 C 6.0487101,8.6071278 6.0491619,8.5363676 6.1733837,8.1259007 6.421309,7.3066797 7.1180795,6.554821 7.9346298,6.2254067 L 8.2923833,6.0810811 H 25 41.707617 L 42.06537,6.2254067 C 42.8772,6.5529164 43.572756,7.3001303 43.8245,8.1151834 43.949074,8.5185073 43.949631,8.5936991 43.949631,25 c 0,16.406301 -5.52e-4,16.481493 -0.125131,16.884816 -0.251744,0.815054 -0.9473,1.562268 -1.75913,1.889777 l -0.357753,0.144326 -4.345823,0.01694 -4.345823,0.01694 v -6.973333 -6.973332 h 1.920216 1.920217 l 0.693137,-3.485873 c 0.381226,-1.917229 0.691883,-3.506603 0.690349,-3.531941 -0.0015,-0.02534 -1.179619,-0.04607 -2.617965,-0.04607 h -2.615176 l 0.01997,-1.219216 c 0.0146,-0.891251 0.04165,-1.245295 0.100554,-1.316162 0.04432,-0.05332 0.21017,-0.145865 0.36855,-0.205657 0.250375,-0.09452 0.566665,-0.1117 2.423089,-0.131592 l 2.135126,-0.02288 -0.01596,-2.855148 -0.01596,-2.855147 L 37.5,14.101355 c -1.080496,-0.48654 -2.37823,-0.83473 -3.808354,-1.021807 -1.136644,-0.148686 -2.769583,-0.09713 -3.56576,0.112588 -2.286183,0.602185 -3.86266,2.105262 -4.629479,4.413934 -0.404686,1.218394 -0.52712,2.157649 -0.52712,4.043843 v 1.292347 h -1.504914 -1.504914 v 3.531941 3.531942 h 1.504914 1.504914 v 6.971744 6.971744 l -8.246314,-0.0035 C 8.68825,43.94282 8.4668396,43.93962 8.0939903,43.821483 Z"
     id="path1590" />
</svg>
