<?xml version="1.0" encoding="UTF-8" standalone="no"?>
<!-- Generator: Adobe Illustrator 25.0.0, SVG Export Plug-In . SVG Version: 6.00 Build 0)  -->

<svg
   version="1.1"
   id="Capa_1"
   x="0px"
   y="0px"
   viewBox="0 0 512 512"
   style="enable-background:new 0 0 512 512;"
   xml:space="preserve"
   width="512"
   height="512"
   sodipodi:docname="marcador1.svg"
   inkscape:version="1.2-beta (1b65182ce9, 2022-04-05)"
   xmlns:inkscape="http://www.inkscape.org/namespaces/inkscape"
   xmlns:sodipodi="http://sodipodi.sourceforge.net/DTD/sodipodi-0.dtd"
   xmlns="http://www.w3.org/2000/svg"
   xmlns:svg="http://www.w3.org/2000/svg"><defs
   id="defs9102">
	
	
</defs><sodipodi:namedview
   id="namedview9100"
   pagecolor="#ffffff"
   bordercolor="#000000"
   borderopacity="0.25"
   inkscape:pageshadow="2"
   inkscape:pageopacity="0.0"
   inkscape:pagecheckerboard="0"
   inkscape:deskcolor="#d1d1d1"
   showgrid="false"
   inkscape:zoom="1.5332031"
   inkscape:cx="255.67389"
   inkscape:cy="256"
   inkscape:window-width="1920"
   inkscape:window-height="1001"
   inkscape:window-x="-9"
   inkscape:window-y="-9"
   inkscape:window-maximized="1"
   inkscape:current-layer="Capa_1" />
<path
   d="M 255.104,512.171 240.233,499.424 C 219.732,482.258 40.725,327.661 40.725,214.577 40.725,96.179 136.706,0.198 255.104,0.198 c 118.398,0 214.379,95.981 214.379,214.379 0,113.085 -179.007,267.682 -199.423,284.932 z m 0,-465.618 c -92.753,0.105 -167.918,75.27 -168.023,168.023 0,71.042 110.132,184.53 168.023,236.473 C 312.996,399.085 423.127,285.532 423.127,214.576 423.022,121.823 347.858,46.659 255.104,46.553 Z"
   id="path9094"
   style="fill:#ffffff" /><path
   d="m 255.104,299.555 c -46.932,0 -84.978,-38.046 -84.978,-84.978 0,-46.932 38.046,-84.978 84.978,-84.978 46.932,0 84.978,38.046 84.978,84.978 0,46.932 -38.045,84.978 -84.978,84.978 z m 0,-127.468 c -23.466,0 -42.489,19.023 -42.489,42.489 0,23.466 19.023,42.489 42.489,42.489 23.466,0 42.489,-19.023 42.489,-42.489 0,-23.466 -19.022,-42.489 -42.489,-42.489 z"
   id="path9096"
   style="fill:#0086ff;fill-opacity:1" />
</svg>
